<mxfile host="app.diagrams.net" modified="2023-12-05T10:33:38.661Z" agent="Mozilla/5.0 (Windows NT 10.0; Win64; x64) AppleWebKit/537.36 (KHTML, like Gecko) Chrome/119.0.0.0 Safari/537.36 Avast/119.0.0.0" etag="JIj155Yfjr6MQAOobeme" version="22.1.5" type="github">
  <diagram name="Page-1" id="c37626ed-c26b-45fb-9056-f9ebc6bb27b6">
    <mxGraphModel dx="3943" dy="1217" grid="0" gridSize="10" guides="0" tooltips="1" connect="1" arrows="1" fold="1" page="0" pageScale="1" pageWidth="1100" pageHeight="850" background="none" math="0" shadow="0">
      <root>
        <mxCell id="0" />
        <mxCell id="1" parent="0" />
        <mxCell id="x7zYonf14OowoV8IFv3s-1" value="VE" style="rounded=1;whiteSpace=wrap;html=1;fillColor=#dae8fc;strokeColor=#6c8ebf;fontFamily=Verdana;" parent="1" vertex="1">
          <mxGeometry x="30" y="20" width="2160" height="1680" as="geometry" />
        </mxCell>
        <mxCell id="x7zYonf14OowoV8IFv3s-14" value="" style="rounded=0;whiteSpace=wrap;html=1;fontFamily=Verdana;" parent="1" vertex="1">
          <mxGeometry x="297" y="20" width="668" height="60" as="geometry" />
        </mxCell>
        <mxCell id="x7zYonf14OowoV8IFv3s-6" value="&lt;font style=&quot;font-size: 40px;&quot;&gt;Fôret : ABSTERGO.INTERNAL&lt;/font&gt;" style="text;strokeColor=none;fillColor=none;html=1;fontSize=24;fontStyle=1;verticalAlign=middle;align=center;fontFamily=Verdana;" parent="1" vertex="1">
          <mxGeometry x="400" y="30" width="460" height="40" as="geometry" />
        </mxCell>
        <mxCell id="x7zYonf14OowoV8IFv3s-15" value="" style="rounded=1;whiteSpace=wrap;html=1;fillColor=#d5e8d4;strokeColor=#82b366;fontFamily=Verdana;" parent="1" vertex="1">
          <mxGeometry x="190" y="170" width="1870" height="1430" as="geometry" />
        </mxCell>
        <mxCell id="x7zYonf14OowoV8IFv3s-22" value="eqs" style="rounded=0;whiteSpace=wrap;html=1;fontFamily=Verdana;" parent="1" vertex="1">
          <mxGeometry x="375" y="170" width="741" height="60" as="geometry" />
        </mxCell>
        <mxCell id="x7zYonf14OowoV8IFv3s-21" value="&lt;font style=&quot;font-size: 40px;&quot;&gt;Domaine : ABSTERGO.INTERNAL&lt;/font&gt;" style="text;strokeColor=none;fillColor=none;html=1;fontSize=24;fontStyle=1;verticalAlign=middle;align=center;fontFamily=Verdana;" parent="1" vertex="1">
          <mxGeometry x="516" y="179" width="460" height="40" as="geometry" />
        </mxCell>
        <mxCell id="x7zYonf14OowoV8IFv3s-23" value="" style="rounded=1;whiteSpace=wrap;html=1;fillColor=#f0a30a;strokeColor=#BD7000;fontColor=#000000;fontFamily=Verdana;" parent="1" vertex="1">
          <mxGeometry x="290" y="635" width="874" height="430" as="geometry" />
        </mxCell>
        <mxCell id="x7zYonf14OowoV8IFv3s-25" value="" style="rounded=0;whiteSpace=wrap;html=1;fontFamily=Verdana;" parent="1" vertex="1">
          <mxGeometry x="399" y="635" width="634" height="60" as="geometry" />
        </mxCell>
        <mxCell id="x7zYonf14OowoV8IFv3s-24" value="&lt;font style=&quot;font-size: 40px;&quot;&gt;UO : Domain Contollers&lt;/font&gt;" style="text;strokeColor=none;fillColor=none;html=1;fontSize=24;fontStyle=1;verticalAlign=middle;align=center;fontFamily=Verdana;" parent="1" vertex="1">
          <mxGeometry x="481" y="645" width="460" height="40" as="geometry" />
        </mxCell>
        <mxCell id="x7zYonf14OowoV8IFv3s-26" value="" style="shape=note;whiteSpace=wrap;html=1;backgroundOutline=1;darkOpacity=0.05;fontFamily=Verdana;" parent="1" vertex="1">
          <mxGeometry x="330" y="730" width="80" height="100" as="geometry" />
        </mxCell>
        <mxCell id="x7zYonf14OowoV8IFv3s-27" value="&lt;font style=&quot;font-size: 36px;&quot;&gt;Default&amp;nbsp; Domain Controllers Policy&lt;/font&gt;" style="text;strokeColor=none;fillColor=none;html=1;fontSize=24;fontStyle=1;verticalAlign=middle;align=center;fontFamily=Verdana;" parent="1" vertex="1">
          <mxGeometry x="732" y="769" width="100" height="40" as="geometry" />
        </mxCell>
        <mxCell id="x7zYonf14OowoV8IFv3s-28" value="" style="rounded=1;whiteSpace=wrap;html=1;fillColor=#bac8d3;strokeColor=#23445d;fontFamily=Verdana;" parent="1" vertex="1">
          <mxGeometry x="1200" y="290" width="760" height="1120" as="geometry" />
        </mxCell>
        <mxCell id="x7zYonf14OowoV8IFv3s-29" value="" style="rounded=0;whiteSpace=wrap;html=1;fontFamily=Verdana;" parent="1" vertex="1">
          <mxGeometry x="1296" y="290" width="575" height="60" as="geometry" />
        </mxCell>
        <mxCell id="x7zYonf14OowoV8IFv3s-30" value="&lt;font style=&quot;font-size: 40px;&quot;&gt;UO : UtilisateursAbstergo&lt;/font&gt;" style="text;strokeColor=none;fillColor=none;html=1;fontSize=24;fontStyle=1;verticalAlign=middle;align=center;fontFamily=Verdana;" parent="1" vertex="1">
          <mxGeometry x="1355" y="300" width="460" height="40" as="geometry" />
        </mxCell>
        <mxCell id="x7zYonf14OowoV8IFv3s-31" value="" style="shape=note;whiteSpace=wrap;html=1;backgroundOutline=1;darkOpacity=0.05;fontFamily=Verdana;" parent="1" vertex="1">
          <mxGeometry x="1350" y="380" width="80" height="100" as="geometry" />
        </mxCell>
        <mxCell id="x7zYonf14OowoV8IFv3s-32" value="&lt;font style=&quot;font-size: 36px;&quot;&gt;Raccourcis-Utilisateurs&lt;/font&gt;" style="text;strokeColor=none;fillColor=none;html=1;fontSize=24;fontStyle=1;verticalAlign=middle;align=center;fontFamily=Verdana;" parent="1" vertex="1">
          <mxGeometry x="1630" y="412" width="100" height="40" as="geometry" />
        </mxCell>
        <mxCell id="x7zYonf14OowoV8IFv3s-33" value="" style="rounded=1;whiteSpace=wrap;html=1;fillColor=#ffe6cc;strokeColor=#d79b00;fontFamily=Verdana;" parent="1" vertex="1">
          <mxGeometry x="1225" y="750" width="710" height="360" as="geometry" />
        </mxCell>
        <mxCell id="x7zYonf14OowoV8IFv3s-34" value="" style="rounded=0;whiteSpace=wrap;html=1;fontFamily=Verdana;" parent="1" vertex="1">
          <mxGeometry x="1381" y="750" width="416" height="60" as="geometry" />
        </mxCell>
        <mxCell id="x7zYonf14OowoV8IFv3s-35" value="&lt;font style=&quot;font-size: 40px;&quot;&gt;UO : Comptabilité&lt;/font&gt;" style="text;strokeColor=none;fillColor=none;html=1;fontSize=24;fontStyle=1;verticalAlign=middle;align=center;fontFamily=Verdana;" parent="1" vertex="1">
          <mxGeometry x="1360" y="760" width="460" height="40" as="geometry" />
        </mxCell>
        <mxCell id="x7zYonf14OowoV8IFv3s-39" value="" style="shape=note;whiteSpace=wrap;html=1;backgroundOutline=1;darkOpacity=0.05;fontFamily=Verdana;" parent="1" vertex="1">
          <mxGeometry x="380" y="310" width="80" height="100" as="geometry" />
        </mxCell>
        <mxCell id="x7zYonf14OowoV8IFv3s-40" value="&lt;font style=&quot;font-size: 36px;&quot;&gt;Default Domain Policy&lt;/font&gt;" style="text;strokeColor=none;fillColor=none;html=1;fontSize=24;fontStyle=1;verticalAlign=middle;align=center;fontFamily=Verdana;" parent="1" vertex="1">
          <mxGeometry x="656" y="342" width="100" height="40" as="geometry" />
        </mxCell>
        <mxCell id="x7zYonf14OowoV8IFv3s-42" value="&lt;font style=&quot;font-size: 30px;&quot;&gt;Pierre Morin&lt;/font&gt;" style="text;strokeColor=none;fillColor=none;html=1;fontSize=24;fontStyle=1;verticalAlign=middle;align=center;fontFamily=Verdana;" parent="1" vertex="1">
          <mxGeometry x="1408" y="840" width="100" height="40" as="geometry" />
        </mxCell>
        <mxCell id="x7zYonf14OowoV8IFv3s-45" value="" style="shape=actor;whiteSpace=wrap;html=1;fontFamily=Verdana;" parent="1" vertex="1">
          <mxGeometry x="1300" y="820" width="40" height="60" as="geometry" />
        </mxCell>
        <mxCell id="x7zYonf14OowoV8IFv3s-48" value="" style="edgeStyle=elbowEdgeStyle;elbow=horizontal;endArrow=classic;html=1;curved=0;rounded=0;endSize=8;startSize=8;strokeWidth=12;fontFamily=Verdana;" parent="1" edge="1">
          <mxGeometry width="50" height="50" relative="1" as="geometry">
            <mxPoint x="1432" y="465" as="sourcePoint" />
            <mxPoint x="2310" y="580" as="targetPoint" />
          </mxGeometry>
        </mxCell>
        <mxCell id="x7zYonf14OowoV8IFv3s-49" value="&lt;font style=&quot;&quot;&gt;&lt;font style=&quot;font-size: 36px;&quot;&gt;Mettre un raccourci de la ERP Dolibarr sur le Bureau des utilisateurs&lt;/font&gt;&lt;br&gt;&lt;/font&gt;" style="shape=ext;double=1;rounded=1;whiteSpace=wrap;html=1;fontFamily=Verdana;" parent="1" vertex="1">
          <mxGeometry x="2310" y="470" width="530" height="175" as="geometry" />
        </mxCell>
        <mxCell id="B7Uj_qJqC2-JsFO9e1MG-2" value="" style="edgeStyle=orthogonalEdgeStyle;rounded=0;orthogonalLoop=1;jettySize=auto;html=1;" edge="1" parent="1" source="x7zYonf14OowoV8IFv3s-50" target="x7zYonf14OowoV8IFv3s-49">
          <mxGeometry relative="1" as="geometry" />
        </mxCell>
        <mxCell id="B7Uj_qJqC2-JsFO9e1MG-3" value="" style="edgeStyle=orthogonalEdgeStyle;rounded=0;orthogonalLoop=1;jettySize=auto;html=1;" edge="1" parent="1" source="x7zYonf14OowoV8IFv3s-50" target="x7zYonf14OowoV8IFv3s-49">
          <mxGeometry relative="1" as="geometry" />
        </mxCell>
        <mxCell id="B7Uj_qJqC2-JsFO9e1MG-4" value="" style="edgeStyle=orthogonalEdgeStyle;rounded=0;orthogonalLoop=1;jettySize=auto;html=1;" edge="1" parent="1" source="x7zYonf14OowoV8IFv3s-50" target="x7zYonf14OowoV8IFv3s-49">
          <mxGeometry relative="1" as="geometry" />
        </mxCell>
        <mxCell id="x7zYonf14OowoV8IFv3s-50" value="&lt;font color=&quot;#ff6666&quot; style=&quot;font-size: 36px;&quot;&gt;GPO : Raccourcis-Utilisateurs&lt;/font&gt;" style="text;strokeColor=none;fillColor=none;html=1;fontSize=24;fontStyle=1;verticalAlign=middle;align=center;fontFamily=Verdana;" parent="1" vertex="1">
          <mxGeometry x="2520" y="425" width="100" height="40" as="geometry" />
        </mxCell>
        <mxCell id="x7zYonf14OowoV8IFv3s-56" value="&lt;font style=&quot;font-size: 36px;&quot;&gt;&lt;font style=&quot;font-size: 36px;&quot;&gt;GPO par défaut du Domaine&lt;br&gt;Ex : Règles pour les mot de passe des comptes et leur expiration&amp;nbsp;&amp;nbsp;&lt;/font&gt;&lt;br&gt;&lt;/font&gt;" style="shape=ext;double=1;rounded=1;whiteSpace=wrap;html=1;fontFamily=Verdana;" parent="1" vertex="1">
          <mxGeometry x="-689" y="290" width="530" height="175" as="geometry" />
        </mxCell>
        <mxCell id="x7zYonf14OowoV8IFv3s-58" value="" style="edgeStyle=orthogonalEdgeStyle;rounded=0;orthogonalLoop=1;jettySize=auto;html=1;fontFamily=Verdana;" parent="1" source="x7zYonf14OowoV8IFv3s-57" target="x7zYonf14OowoV8IFv3s-56" edge="1">
          <mxGeometry relative="1" as="geometry" />
        </mxCell>
        <mxCell id="B7Uj_qJqC2-JsFO9e1MG-1" value="" style="edgeStyle=orthogonalEdgeStyle;rounded=0;orthogonalLoop=1;jettySize=auto;html=1;" edge="1" parent="1" source="x7zYonf14OowoV8IFv3s-57" target="x7zYonf14OowoV8IFv3s-56">
          <mxGeometry relative="1" as="geometry" />
        </mxCell>
        <mxCell id="x7zYonf14OowoV8IFv3s-57" value="&lt;font style=&quot;font-size: 36px;&quot; color=&quot;#ff6666&quot;&gt;&lt;font style=&quot;font-size: 36px;&quot;&gt;GPO :&amp;nbsp;&lt;/font&gt;Default Domain Policy&lt;/font&gt;" style="text;strokeColor=none;fillColor=none;html=1;fontSize=24;fontStyle=1;verticalAlign=middle;align=center;fontFamily=Verdana;" parent="1" vertex="1">
          <mxGeometry x="-480" y="230" width="100" height="40" as="geometry" />
        </mxCell>
        <mxCell id="x7zYonf14OowoV8IFv3s-64" value="" style="endArrow=classic;html=1;rounded=0;entryX=1.001;entryY=0.581;entryDx=0;entryDy=0;entryPerimeter=0;strokeWidth=12;fontFamily=Verdana;" parent="1" source="x7zYonf14OowoV8IFv3s-39" target="x7zYonf14OowoV8IFv3s-56" edge="1">
          <mxGeometry width="50" height="50" relative="1" as="geometry">
            <mxPoint x="270" y="350" as="sourcePoint" />
            <mxPoint x="320" y="300" as="targetPoint" />
            <Array as="points">
              <mxPoint x="320" y="350" />
            </Array>
          </mxGeometry>
        </mxCell>
        <mxCell id="x7zYonf14OowoV8IFv3s-65" value="&lt;font style=&quot;font-size: 36px;&quot;&gt;&lt;font style=&quot;font-size: 36px;&quot;&gt;GPO par défaut du Contrôleur de Domaine&lt;br&gt;Ex : Restaurer les fichiers et les répertoires&amp;nbsp;&amp;nbsp;&lt;/font&gt;&lt;br&gt;&lt;/font&gt;" style="shape=ext;double=1;rounded=1;whiteSpace=wrap;html=1;perimeterSpacing=0;fontFamily=Verdana;" parent="1" vertex="1">
          <mxGeometry x="-770" y="865" width="640" height="175" as="geometry" />
        </mxCell>
        <mxCell id="x7zYonf14OowoV8IFv3s-66" value="" style="edgeStyle=orthogonalEdgeStyle;rounded=0;orthogonalLoop=1;jettySize=auto;html=1;fontFamily=Verdana;" parent="1" source="x7zYonf14OowoV8IFv3s-67" target="x7zYonf14OowoV8IFv3s-65" edge="1">
          <mxGeometry relative="1" as="geometry" />
        </mxCell>
        <mxCell id="x7zYonf14OowoV8IFv3s-67" value="&lt;font style=&quot;font-size: 36px;&quot; color=&quot;#ff6666&quot;&gt;&lt;font style=&quot;font-size: 36px;&quot;&gt;GPO :&amp;nbsp;&lt;/font&gt;Default Domain Controllers Policy&lt;/font&gt;" style="text;strokeColor=none;fillColor=none;html=1;fontSize=24;fontStyle=1;verticalAlign=middle;align=center;fontFamily=Verdana;" parent="1" vertex="1">
          <mxGeometry x="-484" y="803" width="100" height="40" as="geometry" />
        </mxCell>
        <mxCell id="x7zYonf14OowoV8IFv3s-71" value="" style="endArrow=classic;html=1;rounded=0;strokeWidth=12;fontFamily=Verdana;" parent="1" target="x7zYonf14OowoV8IFv3s-65" edge="1">
          <mxGeometry width="50" height="50" relative="1" as="geometry">
            <mxPoint x="330" y="794" as="sourcePoint" />
            <mxPoint x="-208" y="830" as="targetPoint" />
            <Array as="points">
              <mxPoint x="270" y="788" />
            </Array>
          </mxGeometry>
        </mxCell>
      </root>
    </mxGraphModel>
  </diagram>
</mxfile>
